HIERARCHY
ROOT root
{
	OFFSET 0.000000 0.000000 0.000000
	CHANNELS 6 Xposition Yposition Zposition Zrotation Yrotation Xrotation
	JOINT lhip
	{
		OFFSET 0.058581 -0.082280 -0.017664
		CHANNELS 3 Zrotation Yrotation Xrotation
		JOINT lknee
		{
			OFFSET 0.043451 -0.386469 0.008037
			CHANNELS 3 Zrotation Yrotation Xrotation
			JOINT lankle
			{
				OFFSET -0.014790 -0.426874 -0.037428
				CHANNELS 3 Zrotation Yrotation Xrotation
				JOINT ltoe
				{
					OFFSET 0.041054 -0.060286 0.122042
					CHANNELS 3 Zrotation Yrotation Xrotation
					End Site
					{
						OFFSET 0.000000 0.000000 0.000000
					}
				}
			}
		}
	}
	JOINT rhip
	{
		OFFSET -0.060310 -0.090513 -0.013543
		CHANNELS 3 Zrotation Yrotation Xrotation
		JOINT rknee
		{
			OFFSET -0.043257 -0.383688 -0.004843
			CHANNELS 3 Zrotation Yrotation Xrotation
			JOINT rankle
			{
				OFFSET 0.019056 -0.420046 -0.034562
				CHANNELS 3 Zrotation Yrotation Xrotation
				JOINT rtoe
				{
					OFFSET -0.034840 -0.062106 0.130323
					CHANNELS 3 Zrotation Yrotation Xrotation
					End Site
					{
						OFFSET 0.000000 0.000000 0.000000
					}
				}
			}
		}
	}
	JOINT lowerback
	{
		OFFSET 0.004439 0.124404 -0.038385
		CHANNELS 3 Zrotation Yrotation Xrotation
		JOINT upperback
		{
			OFFSET 0.004488 0.137956 0.026820
			CHANNELS 3 Zrotation Yrotation Xrotation
			JOINT chest
			{
				OFFSET -0.002265 0.056032 0.002855
				CHANNELS 3 Zrotation Yrotation Xrotation
				JOINT lowerneck
				{
					OFFSET -0.013390 0.211636 -0.033468
					CHANNELS 3 Zrotation Yrotation Xrotation
					JOINT upperneck
					{
						OFFSET 0.010113 0.088937 0.050410
						CHANNELS 3 Zrotation Yrotation Xrotation
						End Site
						{
							OFFSET 0.000000 0.000000 0.000000
						}
					}
				}
				JOINT lclavicle
				{
					OFFSET 0.071702 0.114000 -0.018898
					CHANNELS 3 Zrotation Yrotation Xrotation
					JOINT lshoulder
					{
						OFFSET 0.122921 0.045205 -0.019046
						CHANNELS 3 Zrotation Yrotation Xrotation
						JOINT lelbow
						{
							OFFSET 0.255332 -0.015649 -0.022946
							CHANNELS 3 Zrotation Yrotation Xrotation
							JOINT lwrist
							{
								OFFSET 0.265709 0.012698 -0.007375
								CHANNELS 3 Zrotation Yrotation Xrotation
								End Site
								{
									OFFSET 0.000000 0.000000 0.000000
								}
							}
						}
					}
				}
				JOINT rclavicle
				{
					OFFSET -0.082954 0.112472 -0.023707
					CHANNELS 3 Zrotation Yrotation Xrotation
					JOINT rshoulder
					{
						OFFSET -0.113228 0.046853 -0.008472
						CHANNELS 3 Zrotation Yrotation Xrotation
						JOINT relbow
						{
							OFFSET -0.260127 -0.014369 -0.031269
							CHANNELS 3 Zrotation Yrotation Xrotation
							JOINT rwrist
							{
								OFFSET -0.269108 0.006794 -0.006027
								CHANNELS 3 Zrotation Yrotation Xrotation
								End Site
								{
									OFFSET 0.000000 0.000000 0.000000
								}
							}
						}
					}
				}
			}
		}
	}
}
MOTION
Frames: 11
Frame Time: 0.033333
2.700493 1.705098 0.990719 -39.232194 0.854765 81.759709 1.860437 2.701863 6.771577 -4.079490 -2.454091 4.750393 2.663541 13.170626 -10.240742 0.000000 -0.000000 0.000000 -1.157973 -2.793585 -0.781555 -0.136158 -8.862695 19.211054 1.880338 -10.200867 -12.274320 0.000000 -0.000000 0.000000 -0.427993 -0.388047 5.422041 -0.058809 -3.400586 8.656585 0.802964 -2.572403 -0.335343 3.012037 8.942190 14.908772 2.970712 11.755729 -6.219896 -20.204660 2.866062 3.036384 -58.909815 -2.239549 7.426267 7.665431 -33.896536 6.179923 -16.624169 -11.899618 0.583103 16.258508 2.996376 6.263559 60.955104 3.380685 11.348019 -7.555165 33.385751 7.160694 13.999573 8.540497 -1.319023 
2.701013 1.705254 0.990767 -39.288907 0.894554 81.807962 1.905653 2.732717 6.714819 -4.108768 -2.454347 4.673692 2.895189 13.130248 -10.135265 0.000000 -0.000000 0.000000 -1.203951 -3.011898 -0.993380 -0.102386 -8.970177 19.441507 1.903274 -10.069354 -12.179761 0.000000 -0.000000 0.000000 -0.449178 -0.420505 5.517281 -0.076314 -3.508769 8.306797 0.725983 -2.558992 -0.345188 2.735248 8.506114 14.594399 3.125680 11.318080 -5.409187 -20.056460 2.683101 3.059324 -59.018783 -2.041945 7.624503 7.892017 -33.248105 6.369083 -16.891942 -11.917234 0.172612 16.255158 3.048970 6.288212 60.921717 3.244764 11.668935 -7.588501 33.484172 7.633425 15.253100 8.350319 -2.234211 
2.700895 1.705044 0.990952 -39.437090 0.996307 81.770393 2.051412 2.837931 6.870987 -4.102739 -2.468249 4.549851 2.847359 13.164806 -10.101109 0.000000 -0.000000 0.000000 -1.041304 -2.884804 -0.831302 -0.111435 -8.885830 19.219927 1.893769 -10.135385 -12.116909 0.000000 -0.000000 0.000000 -0.453663 -0.498833 5.509851 -0.071909 -3.545334 8.254203 0.735329 -2.567339 -0.355035 2.666711 8.589658 14.763967 3.113654 11.391483 -5.544845 -19.912458 2.582512 3.123135 -59.144663 -1.867029 7.617523 8.010404 -32.530634 6.234561 -16.890284 -11.750973 0.262399 16.200811 3.199771 6.310953 60.968075 3.220124 11.655415 -7.707498 33.501581 7.489532 14.960495 8.403431 -2.114152 
2.701357 1.705138 0.990761 -39.837419 0.883616 81.841567 1.872919 2.980247 6.888829 -4.082162 -2.338095 4.346298 2.968639 13.362054 -10.106158 0.000000 -0.000000 0.000000 -1.305672 -2.844504 -1.301933 0.030367 -8.921598 19.787406 2.076116 -9.964924 -12.171079 0.000000 -0.000000 0.000000 -0.667439 -0.351355 5.329999 -0.048144 -3.482327 8.399279 0.796629 -2.592631 -0.417634 2.667052 8.635548 14.801518 3.046355 11.322281 -5.617205 -19.710328 2.449625 3.013118 -59.431599 -1.672938 7.756811 8.500706 -31.014024 5.947565 -17.639501 -11.601984 1.023094 16.260927 3.345132 6.270611 60.860918 3.186794 11.726615 -7.841417 33.290630 7.111191 14.881266 8.486245 -1.894667 
2.701484 1.705148 0.990678 -39.937387 0.904144 81.817329 1.893134 3.053632 6.911413 -4.068591 -2.270587 4.349358 3.008782 13.376597 -10.072212 0.000000 -0.000000 0.000000 -1.305503 -2.898797 -1.346895 0.032426 -8.910378 19.875807 2.060773 -9.875366 -12.165766 0.000000 -0.000000 0.000000 -0.684068 -0.305427 5.363720 -0.029487 -3.484066 8.323054 0.801856 -2.647707 -0.328775 2.656321 8.628872 14.728089 2.971639 11.354323 -5.659257 -19.726813 2.336087 3.036327 -59.441665 -1.662636 7.717102 8.218428 -30.793836 5.530129 -16.959433 -11.238402 0.325890 16.230575 3.223622 6.180049 60.834195 3.249194 11.749301 -7.640477 33.131994 7.140791 14.940853 8.285608 -2.003014 
2.701438 1.704940 0.990563 -39.988075 0.925585 81.884481 1.892221 3.078432 6.860754 -4.046396 -2.235007 4.317477 2.996566 13.369310 -10.073883 0.000000 -0.000000 0.000000 -1.374509 -2.965371 -1.607641 0.188345 -8.646516 20.183059 2.162649 -9.923125 -12.093262 0.000000 -0.000000 0.000000 -0.801496 -0.195080 4.983661 0.054266 -3.533264 8.692980 0.850206 -2.681688 -0.310063 2.732264 8.593690 14.686367 2.974787 11.228434 -5.762995 -19.778131 2.101871 3.095572 -59.497628 -1.795267 7.701445 8.364462 -29.887281 5.123579 -17.099148 -11.085395 0.580069 16.253882 3.266375 6.168140 60.828699 3.230297 11.698216 -7.657667 32.780905 7.052090 14.878619 8.256066 -1.806703 
2.701338 1.704545 0.990618 -40.083560 0.887055 82.002198 1.797582 3.163023 6.783144 -3.993976 -2.157939 4.266501 2.996903 13.441621 -10.002942 0.000000 -0.000000 0.000000 -1.506946 -3.167515 -1.828671 0.302004 -8.560976 20.276105 2.239711 -9.857473 -12.004690 0.000000 -0.000000 0.000000 -0.858607 -0.142118 4.732369 0.072295 -3.593707 8.790686 0.834836 -2.650224 -0.354730 2.655252 8.601620 14.660931 2.985614 11.253349 -5.807068 -19.763243 2.082015 3.031930 -59.554251 -1.725798 7.830887 8.409632 -29.070100 4.959555 -17.265042 -10.913494 0.805679 16.218290 3.226591 6.176152 60.953256 3.221926 11.651644 -7.670894 32.255192 6.784943 14.942500 8.144054 -1.898826 
2.701118 1.704016 0.990830 -40.116166 0.959938 81.992655 1.862673 3.192260 6.909540 -3.992150 -2.127548 4.120470 2.936016 13.457669 -9.981536 0.000000 -0.000000 0.000000 -1.431771 -3.112795 -1.442756 0.357728 -8.597634 19.634247 2.231254 -9.795579 -11.869710 0.000000 -0.000000 0.000000 -0.759701 -0.156857 4.652969 0.064449 -3.582855 8.714548 0.846037 -2.645072 -0.284037 2.607869 8.544702 14.648801 2.982862 11.230959 -5.688962 -19.772278 2.069816 3.081663 -59.619163 -1.755548 7.789648 8.277950 -28.411657 5.084287 -17.097469 -10.877143 0.777780 16.156060 3.157012 6.249758 61.057301 3.253955 11.557001 -7.705614 31.798669 6.659115 14.384970 8.164389 -1.856903 
2.701171 1.703470 0.991122 -40.182932 0.939106 82.037025 1.772284 3.265442 6.911774 -3.969239 -1.985197 4.003241 2.960137 13.553001 -9.855040 0.000000 -0.000000 0.000000 -1.404830 -3.231182 -1.050415 0.236643 -8.966600 18.832147 2.093851 -9.567566 -11.786888 0.000000 -0.000000 0.000000 -0.660844 -0.176608 4.724223 -0.002573 -3.559260 8.367032 0.843130 -2.607920 -0.221806 2.512447 8.456027 14.698014 2.954794 11.257446 -5.624940 -19.801902 2.192023 3.025538 -59.648736 -1.698092 7.820177 8.154269 -27.883700 5.269143 -17.529337 -10.894720 0.753735 16.038956 3.125955 6.287138 61.189109 3.120600 11.655990 -7.425299 30.997870 7.031300 15.460114 7.973331 -2.044983 
2.701397 1.703293 0.991244 -40.542885 0.709530 82.345682 1.446484 3.410544 6.678777 -3.950451 -1.846351 3.861277 3.152320 13.849667 -9.726740 0.000000 -0.000000 0.000000 -1.504295 -3.413867 -1.256503 0.123125 -8.322011 18.433891 2.057689 -9.658236 -11.740281 0.000000 -0.000000 0.000000 -0.618532 -0.172981 5.094607 -0.138574 -3.601222 7.537827 0.679985 -2.462814 -0.546418 2.201105 8.173408 14.729729 3.124100 11.705206 -5.379535 -19.719855 2.889178 2.867415 -59.567001 -1.262002 8.158185 7.836754 -27.719240 5.637707 -17.377084 -10.910989 0.682446 16.025119 2.824753 6.325748 61.370342 2.956260 11.964667 -7.161350 30.149987 7.339449 15.445232 7.830170 -1.876540 
2.700253 1.702511 0.991671 -40.235272 1.237865 81.930267 2.142482 3.334943 7.355554 -4.004286 -2.196986 3.661107 2.879728 13.676451 -9.823239 0.000000 -0.000000 0.000000 -1.077496 -2.861720 -0.472849 0.393426 -8.730922 18.214598 2.217382 -9.743004 -11.595059 0.000000 -0.000000 0.000000 -0.144139 -0.585094 5.452213 -0.091322 -3.475719 7.394884 0.756726 -2.504933 -0.334468 2.251686 8.202443 14.818706 2.983373 11.560063 -5.558995 -19.819506 2.758333 3.060287 -59.607689 -1.284579 7.891321 7.729177 -27.805986 6.015869 -17.209496 -10.970949 0.426327 15.961863 2.919753 6.429066 61.368237 2.871744 11.808739 -7.205521 29.774493 7.562672 15.177221 7.764722 -2.023766 
